<svg width="137" height="97" viewBox="0 0 137 97" fill="none" xmlns="http://www.w3.org/2000/svg">
<path d="M66.3326 0.839853C53.3818 3.36642 38.0496 13.1568 24.9115 27.2826C12.1481 41.0352 3.50529 56.3381 0.775991 70.0619C-0.107017 74.426 -0.107017 81.0295 0.749233 84.2451C2.8631 92.0545 8.18791 96.7344 15.0111 96.7344C19.56 96.7344 25.1524 94.6672 31.5742 90.6764L33.0459 89.7576L35.4541 90.7912C41.7422 93.49 49.9301 95.1553 61.9443 96.2176C68.5803 96.7918 92.8229 96.7057 99.5391 96.074C112.57 94.8395 120.731 92.8297 127.207 89.327C129.722 87.9488 130.525 87.3172 132.478 85.25C134.19 83.4412 134.993 82.3215 135.609 80.9434C137.642 76.2922 137.375 71.2678 134.859 66.0711C133.147 62.5109 129.106 57.9746 127.688 57.9746C126.511 57.9746 125.762 58.7211 125.762 59.8983C125.762 60.7883 126.029 61.2477 127.983 63.401C131.648 67.4779 133.2 71.2678 132.906 75.2873C132.13 85.1352 119.393 90.6477 93.9199 92.1406C87.6586 92.5139 72.2193 92.5139 66.0918 92.1406C54.4789 91.4516 46.0502 90.0734 39.3875 87.7766L36.899 86.944L39.3875 84.9055C40.7522 83.7857 43.2139 81.6899 44.8194 80.2543L47.7627 77.6129L48.9133 78.5604C51.8834 81.0008 55.4154 80.7998 58.1715 78.0723C60.0981 76.1486 60.5262 74.5983 60.5262 69.1719L60.5529 64.7217L65.3158 59.4389L70.0787 54.1274L71.1758 56.5678C71.7645 57.8885 72.5672 60.2715 72.9418 61.8506C73.5572 64.3484 73.6643 65.3533 73.691 69.6025C73.7445 74.0527 73.7981 74.5983 74.36 75.8328C75.4838 78.3307 78.3736 80.3691 80.8086 80.3691C83.2436 80.3691 86.1334 78.3594 87.284 75.8328C87.8727 74.5695 87.8994 74.1676 87.8994 68.7412C87.8994 63.7742 87.8192 62.5971 87.284 60.0418C86.5615 56.5391 85.1166 51.974 83.9928 49.5623C83.5379 48.6436 83.2436 47.8109 83.3238 47.7248C83.4844 47.5525 90.7625 48.0981 93.0102 48.4426C94.1608 48.6149 94.4016 48.8158 95.3381 50.0791C96.783 52.1176 99.1645 57.4291 99.8334 60.1279C100.529 63.0852 100.797 66.8176 100.529 70.5787C100.235 75.115 101.064 77.4406 103.606 79.2781C107.245 81.9195 112.276 80.3979 114.042 76.1486C115.594 72.3875 115.246 61.5348 113.373 55.0174C113.159 54.2709 112.998 53.668 113.025 53.668C113.239 53.668 116.718 55.2758 117.788 55.85C119.34 56.6826 119.875 56.7113 120.785 55.9361C121.695 55.1609 121.748 53.7254 120.892 52.8928C119.527 51.5721 111.874 48.4139 106.095 46.7774C99.4053 44.8824 91.3779 43.6766 83.8322 43.4182C80.9959 43.332 78.668 43.1885 78.668 43.1311C78.668 43.0449 79.2031 42.2697 79.8453 41.3797C84.742 34.5178 88.7022 26.3639 89.7457 20.8801C90.9766 14.535 89.7725 9.53927 86.0531 5.57716C83.9928 3.39513 81.5043 1.84474 78.5342 0.983407C75.9922 0.208212 69.8379 0.15079 66.3326 0.839853ZM77.1695 5.14649C81.0494 6.2088 83.9125 8.50567 85.3039 11.6926C85.9729 13.1856 86.0264 13.6449 86.0264 16.6309C85.9996 19.5881 85.9193 20.2197 85.1434 22.6315C82.9492 29.4647 76.7414 39.6283 69.6238 48.0693C65.2623 53.2373 51.6694 67.966 47.5754 71.9568C35.1865 83.9867 25.5537 90.5615 18.008 92.1406C11.0777 93.6049 5.85998 89.6428 4.3883 81.8047C3.63908 77.7277 4.09396 72.5598 5.7797 66.5879C6.82326 62.9129 6.68947 63.0852 8.42872 63.7168C12.3086 65.1524 16.911 68.5115 19.7473 72.0143C21.6471 74.3686 23.3596 75.2873 25.7143 75.316C30.049 75.3447 33.2867 71.5836 32.8319 67.0473C32.6178 64.7791 31.8151 63.3723 28.9252 60.1854C24.9651 55.7926 20.7908 52.6344 15.9209 50.3662C14.7971 49.8494 13.807 49.3613 13.7268 49.2465C13.5395 49.0455 13.9408 48.3565 16.6969 44.2221L18.8643 40.949L20.7373 41.1213C25.0453 41.5233 30.3166 43.533 34.0092 46.2031C34.9457 46.8922 36.9258 48.7584 38.4242 50.3662C41.3944 53.5818 42.4914 54.2996 44.7391 54.4719C47.6557 54.7016 50.0639 53.266 51.5088 50.4811C52.5256 48.4713 52.6059 45.6002 51.6961 43.7053C50.2512 40.7481 45.5686 35.8672 44.1236 35.8672C43.0801 35.8672 42.2774 36.7859 42.2774 37.9918C42.2774 38.767 42.5449 39.1977 43.8026 40.4897C46.4783 43.1885 48.1373 45.3418 48.3246 46.3467C48.6725 48.3277 47.1205 50.2227 45.1672 50.2227C44.0166 50.2227 44.0166 50.2227 40.8057 46.8348C37.8356 43.6766 34.2233 40.9777 31.1729 39.6283C28.9252 38.6234 25.2594 37.4463 23.4666 37.1592C22.7709 37.0443 22.209 36.8721 22.209 36.7572C22.209 36.6711 23.3061 35.3217 24.6172 33.8L27.0254 31.015L28.9787 31.5893C30.0223 31.9051 32.0291 32.6803 33.367 33.3119C36.0963 34.5465 36.792 34.6613 37.675 33.9723C38.4242 33.4268 38.5045 31.5893 37.782 30.9002C37.2201 30.3547 34.357 28.9479 32.377 28.2588C31.5742 28.0004 30.7983 27.6559 30.6912 27.541C30.4772 27.34 32.6445 25.1867 36.5244 21.8275L38.9059 19.7316L40.2973 19.9039C42.5182 20.191 46.2375 21.4543 48.833 22.8037C52.4453 24.6699 54.5324 26.4787 58.0645 30.6992C59.4559 32.3645 60.4727 33.2832 61.4092 33.7713C64.9145 35.494 69.3563 33.7713 70.935 30.0389C71.4969 28.6608 71.6039 25.8758 71.149 24.3541C70.0787 20.9662 63.3625 13.9608 57.7701 10.4293L55.5492 9.05118L56.8871 8.41954C64.0582 5.06036 72.1123 3.73966 77.1695 5.14649ZM55.7901 14.2479C59.7235 16.6596 63.1217 19.7891 65.851 23.4641C67.2424 25.3303 67.4297 25.7035 67.4297 26.8807C67.4297 27.9717 67.2959 28.3162 66.5199 29.1488C65.744 29.9815 65.4229 30.125 64.3258 30.125C63.0949 30.125 62.9879 30.0676 61.5697 28.3162C58.1983 24.268 55.7901 22.0572 52.3115 19.8465C50.3047 18.5832 46.2643 16.8031 44.6053 16.4873C44.0434 16.3725 43.6688 16.1715 43.8026 16.0279C43.9363 15.8844 45.5151 14.8221 47.3346 13.6449L50.6526 11.5203L52.151 12.2094C52.9805 12.6113 54.6127 13.5014 55.7901 14.2479ZM79.3369 49.3613C82.4676 55.3332 84.0195 61.908 84.0195 69.1719C84.0195 73.7369 83.7252 74.7131 82.0395 75.6031C81.0762 76.0912 80.8889 76.1199 79.9256 75.7467C77.9723 75.0002 77.7582 74.3973 77.7047 69.2293C77.6512 62.7693 76.8217 58.9508 74.2529 53.4957L72.8883 50.6246L74.0924 49.1029L75.2697 47.61L76.902 47.6961L78.5074 47.7822L79.3369 49.3613ZM104.543 50.7969L108.075 51.7443L109.011 54.7877C110.59 59.9557 110.911 62.109 110.911 67.7363C110.911 73.3637 110.697 74.4547 109.359 75.6606C107.78 77.0961 105.319 76.1486 104.596 73.8518C104.436 73.3063 104.382 72.5311 104.489 72.1291C104.81 70.6649 104.65 63.8891 104.222 61.4774C103.66 58.4053 102.456 54.6441 101.118 52.0027C100.556 50.8256 100.074 49.8207 100.074 49.7633C100.074 49.6772 100.288 49.6772 100.556 49.7346C100.797 49.8207 102.589 50.3088 104.543 50.7969ZM13.593 54.0125C18.3291 56.1084 22.5301 59.2092 26.1692 63.2574C29.1125 66.5592 29.5674 67.9947 28.2295 69.6887C26.517 71.8707 24.6975 71.5836 22.3695 68.7412C19.4797 65.2098 14.7971 61.707 10.8904 60.0992C9.82013 59.6686 8.85685 59.2092 8.72306 59.0943C8.53576 58.9221 11.158 53.0938 11.4256 53.0938C11.5059 53.0938 12.4692 53.4957 13.593 54.0125ZM56.5125 71.2391C56.4322 72.3875 56.2182 73.6795 56.0309 74.1102C55.2014 75.8328 53.0608 76.4358 51.5356 75.3447L50.7596 74.7992L53.5156 71.9856C55.0408 70.4352 56.3787 69.1719 56.459 69.1719C56.5393 69.1719 56.566 70.1193 56.5125 71.2391Z" fill="white"/>
</svg>
