<svg width="32" height="32" viewBox="0 0 32 32" fill="none" xmlns="http://www.w3.org/2000/svg">
<path d="M16.0194 25.8865L27.1987 16.0158C27.7241 15.5488 28.3816 15.3043 29.1708 15.2822C29.96 15.2601 30.6404 15.5047 31.2119 16.0158C31.7373 16.4828 32 17.0772 32 17.7989C32 18.5206 31.7373 19.1149 31.2119 19.5821L18.026 31.2994C17.7393 31.5541 17.4288 31.735 17.0944 31.842C16.7599 31.9489 16.4016 32.0017 16.0194 32C15.6372 32 15.2789 31.9465 14.9445 31.8395C14.6101 31.7325 14.2996 31.5523 14.0129 31.2994L0.827089 19.5821C0.301566 19.1149 0.0263864 18.5317 0.00154266 17.832C-0.023299 17.1324 0.251881 16.527 0.827089 16.0158C1.35262 15.5488 2.02146 15.3153 2.83364 15.3153C3.64579 15.3153 4.31463 15.5488 4.84016 16.0158L16.0194 25.8865ZM16.0194 10.6029L27.1987 0.732244C27.7241 0.265246 28.3816 0.0215574 29.1708 0.00117945C29.96 -0.0191987 30.6404 0.224489 31.2119 0.732244C31.7373 1.19924 32 1.7936 32 2.51532C32 3.23705 31.7373 3.83141 31.2119 4.29842L18.026 16.0158C17.7393 16.2705 17.4288 16.4514 17.0944 16.5584C16.7599 16.6654 16.4016 16.718 16.0194 16.7163C15.6372 16.7163 15.2789 16.6637 14.9445 16.5584C14.6101 16.4531 14.2996 16.2722 14.0129 16.0158L0.827089 4.29842C0.301566 3.83141 0.0263864 3.24723 0.00154266 2.54589C-0.023299 1.84455 0.251881 1.24 0.827089 0.732244C1.35262 0.265246 2.02146 0.0317468 2.83364 0.0317468C3.64579 0.0317468 4.31463 0.265246 4.84016 0.732244L16.0194 10.6029Z" fill="white" fill-opacity="0.75"/>
</svg>
